<svg xmlns="http://www.w3.org/2000/svg" width="1240" height="596.707" viewBox="0 0 1240 596.707">
  <g id="Grupo_172883" data-name="Grupo 172883" transform="translate(-180.75 -8834)">
    <rect id="Rectángulo_44354" data-name="Rectángulo 44354" width="1240" height="596.707" rx="27" transform="translate(180.75 8834)" fill="#7e89be" opacity="0.2"/>
    <g id="Grupo_146923" data-name="Grupo 146923" transform="translate(180.75 9378.449) rotate(-90)">
      <g id="Grupo_130709" data-name="Grupo 130709" transform="translate(0 0)">
        <g id="Grupo_130708" data-name="Grupo 130708" transform="translate(482.35) rotate(90)" opacity="0.7">
          <path id="Trazado_247495" data-name="Trazado 247495" d="M0,43.478H235.568l83.754,54.977,106.368-1L489.867,0H836.9" transform="translate(1.422 237.854)" fill="none" stroke="#fefefe" stroke-miterlimit="10" stroke-width="3"/>
          <path id="Trazado_247496" data-name="Trazado 247496" d="M512.653,48.727H191.766L120.458,0H0" transform="translate(1.422 36.893)" fill="none" stroke="#fefefe" stroke-miterlimit="10" stroke-width="3"/>
          <path id="Trazado_247497" data-name="Trazado 247497" d="M937.593,51.17H766.277L721.885,95.561H560.909L514.075,48.727H193.188L121.88,0H0" transform="translate(0 91.161)" fill="none" stroke="#fefefe" stroke-miterlimit="10" stroke-width="3"/>
          <line id="Línea_338" data-name="Línea 338" x2="381.122" transform="translate(1.422 248.703)" fill="none" stroke="#fefefe" stroke-miterlimit="10" stroke-width="3"/>
          <path id="Trazado_247501" data-name="Trazado 247501" d="M0,53.8H217.43L297.992,0H412.865" transform="translate(1.422 428.551)" fill="none" stroke="#fefefe" stroke-miterlimit="10" stroke-width="3"/>
          <path id="Trazado_247502" data-name="Trazado 247502" d="M0,0H586.516l53.637,75.755H836.9" transform="translate(1.422 390.675)" fill="none" stroke="#fefefe" stroke-miterlimit="10" stroke-width="3"/>
          <line id="Línea_341" data-name="Línea 341" x2="208.134" transform="translate(1.422 430.015)" fill="none" stroke="#fefefe" stroke-miterlimit="10" stroke-width="3"/>
          <line id="Línea_347" data-name="Línea 347" x2="342.279" transform="translate(1.422 199.032)" fill="none" stroke="#fefefe" stroke-miterlimit="10" stroke-width="3"/>
          <path id="Trazado_247510" data-name="Trazado 247510" d="M0,0H208.134l54.94,36.185H591.218" transform="translate(1.422)" fill="none" stroke="#fefefe" stroke-miterlimit="10" stroke-width="3"/>
        </g>
      </g>
    </g>
  </g>
</svg>
